<?xml version="1.0" encoding="UTF-8" standalone="no"?>
<!-- Created with Inkscape (http://www.inkscape.org/) -->

<svg
   width="63.951134mm"
   height="63.951134mm"
   viewBox="0 0 63.951134 63.951134"
   version="1.1"
   id="svg1"
   xml:space="preserve"
   xmlns="http://www.w3.org/2000/svg"
   xmlns:svg="http://www.w3.org/2000/svg"><defs
     id="defs1" /><g
     id="layer1"
     transform="translate(-0.02428795,-0.02428792)"><path
       id="path1"
       style="fill:#000000;stroke-width:0.819411;stroke-linecap:round;stroke-linejoin:round"
       d="M 31.629251,0.28085081 C 31.530405,0.28083399 30.356929,6.4128852 29.179869,12.601157 a 16.971397,16.971397 0 0 1 2.444677,-0.179258 16.971397,16.971397 0 0 1 2.450323,0.178787 C 32.899909,6.4124682 31.728091,0.28086763 31.629251,0.28085081 Z M 15.851299,13.620242 c -0.03739,0.03739 1.20436,2.217085 2.757083,4.912879 a 16.971397,16.971397 0 0 1 2.155795,-2.155324 c -2.695973,-1.552842 -4.875492,-2.794941 -4.912878,-2.757555 z m 31.546494,0 c -0.03732,-0.03731 -2.20862,1.199546 -4.897352,2.748145 a 16.971397,16.971397 0 0 1 2.148737,2.149678 c 1.54872,-2.689041 2.785933,-4.860505 2.748615,-4.897823 z M 14.833154,26.943167 c -6.1886801,1.174907 -12.3212301,2.346299 -12.3212469,2.445147 -1.69e-5,0.09885 6.1319587,1.272334 12.3203059,2.449382 a 16.971397,16.971397 0 0 1 -0.179258,-2.444206 16.971397,16.971397 0 0 1 0.180199,-2.450323 z m 33.584666,0.0061 a 16.971397,16.971397 0 0 1 0.177846,2.444207 16.971397,16.971397 0 0 1 -0.180199,2.450322 c 6.188604,-1.175058 12.32123,-2.34677 12.321247,-2.445618 1.7e-5,-0.09884 -6.131083,-1.272049 -12.318894,-2.448911 z M 18.608382,40.253858 c -1.552817,2.695841 -2.794469,4.875493 -2.757083,4.912879 0.03739,0.03739 2.217085,-1.204361 4.912878,-2.757084 a 16.971397,16.971397 0 0 1 -2.155795,-2.155795 z m 26.032327,0 a 16.971397,16.971397 0 0 1 -2.155794,2.155325 c 2.695933,1.552872 4.875492,2.79494 4.912878,2.757554 0.03739,-0.03739 -1.204361,-2.217085 -2.757084,-4.912879 z m -15.466486,5.930553 c 1.17492,6.188605 2.346301,12.32123 2.445147,12.321247 0.09885,1.6e-5 1.272322,-6.132035 2.449382,-12.320306 a 16.971397,16.971397 0 0 1 -2.444206,0.179258 16.971397,16.971397 0 0 1 -2.450323,-0.180199 z"
       transform="matrix(1.0983486,0,0,1.0983486,-2.7346617,-0.28418417)" /><circle
       style="opacity:1;fill:none;stroke:#000000;stroke-width:0.5;stroke-linecap:round;stroke-linejoin:round;stroke-dasharray:none;stroke-opacity:1"
       id="path3"
       cx="32"
       cy="32"
       r="24.478369" /><circle
       style="opacity:1;fill:none;stroke:#000000;stroke-width:3;stroke-linecap:round;stroke-linejoin:round;stroke-dasharray:none;stroke-opacity:1"
       id="path4"
       cx="32"
       cy="32"
       r="18.640511" /><path
       style="opacity:1;fill:none;stroke:#000000;stroke-width:1;stroke-linecap:round;stroke-linejoin:round;stroke-dasharray:none;stroke-opacity:1"
       d="m 40.023713,47.975983 c 0,0 -5.79122,-5.373658 -8.636608,-7.529688 -1.323483,-1.00284 -3.025704,-2.252109 -4.234429,-3.390651 -1.058995,-0.997506 -2.233428,-2.235619 -2.872238,-3.307829 -1.035148,-1.737444 -1.546215,-3.377907 -1.664411,-5.191236 -0.07959,-1.22106 -0.2502,-2.790994 0.657516,-3.611587 0.28417,-0.256896 1.145615,-0.0911 1.145615,-0.0911"
       id="path5" /><path
       style="opacity:1;fill:none;stroke:#000000;stroke-width:1;stroke-linecap:round;stroke-linejoin:round;stroke-dasharray:none;stroke-opacity:1"
       d="m 25.368201,30.150961 c 0,0 -0.823599,-3.190391 -0.527061,-4.758448 0.0916,-0.484361 0.244394,-1.094547 0.688298,-1.308896 0.430341,-0.2078 1.408671,0.266492 1.408671,0.266492"
       id="path6" /><path
       style="opacity:1;fill:none;stroke:#000000;stroke-width:1;stroke-linecap:round;stroke-linejoin:round;stroke-dasharray:none;stroke-opacity:1"
       d="m 27.487874,27.377967 c 0,0 -0.549747,-1.735458 -0.484141,-2.621714 0.05037,-0.680511 0.122604,-1.521189 0.664112,-1.936404 0.303003,-0.232336 1.142838,-0.07772 1.142838,-0.07772"
       id="path7" /><path
       style="opacity:1;fill:none;stroke:#000000;stroke-width:1;stroke-linecap:round;stroke-linejoin:round;stroke-dasharray:none;stroke-opacity:1"
       d="m 30.383986,25.433253 c 0,0 -1.250882,-1.6655 -1.295696,-2.646781 -0.03019,-0.661096 0.245976,-1.635861 0.706757,-1.855297 0.801282,-0.381592 1.591937,0.360535 2.258914,0.774488 0.697465,0.432876 1.672296,1.699038 1.672296,1.699038 0,0 0.968279,1.200541 1.553177,1.647424 1.0676,0.815685 2.361678,0.898368 3.493081,1.456323 0.873046,0.430545 1.758314,1.103791 2.723886,1.227286 0.8167,0.104455 2.191127,-0.424371 2.191127,-0.424371 l -1.937734,-2.42013 c 0,0 -1.057567,-1.244926 -1.716615,-1.624801 -1.383729,-0.797581 -3.925126,-1.340647 -5.482657,-1.247264 -0.81414,0.04881 -1.200203,0.735008 -1.200203,0.735008"
       id="path8" /><path
       style="opacity:1;fill:none;stroke:#000000;stroke-width:1;stroke-linecap:round;stroke-linejoin:round;stroke-dasharray:none;stroke-opacity:1"
       d="m 39.951796,27.203744 c 0,0 -1.961824,0.187967 -2.537001,0.718086 -0.320203,0.29512 -0.718333,0.810117 -0.581035,1.287032 0.173789,0.603672 1.623855,0.831261 2.493011,0.779614 1.125747,-0.06689 3.002528,-0.702723 3.086688,-1.385057 0.04236,-0.343438 -0.664506,-0.797576 -0.664506,-0.797576"
       id="path9" /><path
       style="opacity:1;fill:none;stroke:#000000;stroke-width:1;stroke-linecap:round;stroke-linejoin:round;stroke-dasharray:none;stroke-opacity:1"
       d="m 37.551284,29.772842 c 0,0 -1.342935,0.659862 -1.546925,1.10715 -0.255618,0.560497 -0.243319,1.344631 0.260176,1.60593 1.148083,0.595821 2.942673,0.208507 2.942673,0.208507 0,0 1.803653,-0.23811 2.340022,-0.912839 0.363086,-0.456748 0.503656,-0.765756 0.427518,-1.236965 -0.05955,-0.368568 -0.646641,-1.02124 -0.646641,-1.02124"
       id="path10" /><path
       style="opacity:1;fill:none;stroke:#000000;stroke-width:1;stroke-linecap:round;stroke-linejoin:round;stroke-dasharray:none;stroke-opacity:1"
       d="m 37.07784,32.84576 c 0,0 -0.711656,0.579656 -0.649925,1.049832 0.07448,0.567307 0.474918,1.183659 1.018397,1.362587 0.922687,0.303774 1.962753,0.238609 2.912582,-0.09761 0.712772,-0.252305 1.613307,-0.566241 1.839803,-1.300575 0.194597,-0.630912 -0.754258,-1.888355 -0.754258,-1.888355"
       id="path11" /><path
       style="opacity:1;fill:none;stroke:#000000;stroke-width:1;stroke-linecap:round;stroke-linejoin:round;stroke-dasharray:none;stroke-opacity:1"
       d="m 40.139382,36.218036 c 0.01706,0.473674 0.761838,1.029496 1.235704,1.019075 0.493426,-0.01085 1.169845,-0.386261 1.289426,-0.8651 0.113621,-0.454974 -0.237654,-1.291267 -0.694176,-1.398501 -0.721887,-0.169565 -1.857647,0.503472 -1.830954,1.244526 z"
       id="path12" /><path
       style="opacity:1;fill:none;stroke:#000000;stroke-width:1;stroke-linecap:round;stroke-linejoin:round;stroke-dasharray:none;stroke-opacity:1"
       d="m 41.33932,37.353509 5.763246,5.288294"
       id="path13" /><path
       style="opacity:1;fill:none;stroke:#000000;stroke-width:1;stroke-linecap:round;stroke-linejoin:round;stroke-dasharray:none;stroke-opacity:1"
       d="M 26.247817,36.204487 13.356472,31.881786"
       id="path14" /><path
       style="opacity:1;fill:none;stroke:#000000;stroke-width:1;stroke-linecap:round;stroke-linejoin:round;stroke-dasharray:none;stroke-opacity:1"
       d="M 23.010309,25.180869 C 15.603304,22.389736 15.603304,22.389736 15.603304,22.389736"
       id="path15" /></g></svg>
